<svg width="16" height="16" viewBox="0 0 16 16" fill="none" xmlns="http://www.w3.org/2000/svg">
<g clip-path="url(#clip0_3325_40371)">
<path d="M5.65476 2.89339C5.78071 2.10013 6.52586 1.55917 7.31911 1.68512L14.5007 2.82533C15.294 2.95127 15.8349 3.69643 15.709 4.48969L14.3407 13.1076C14.2147 13.9008 13.4696 14.4418 12.6763 14.3158L5.49474 13.1756C4.70149 13.0496 4.16053 12.3045 4.28648 11.5112L5.65476 2.89339Z" fill="url(#paint0_linear_3325_40371)"/>
<path d="M5.65476 2.89339C5.78071 2.10013 6.52586 1.55917 7.31911 1.68512L14.5007 2.82533C15.294 2.95127 15.8349 3.69643 15.709 4.48969L14.3407 13.1076C14.2147 13.9008 13.4696 14.4418 12.6763 14.3158L5.49474 13.1756C4.70149 13.0496 4.16053 12.3045 4.28648 11.5112L5.65476 2.89339Z" fill="white" fill-opacity="0.6"/>
<path d="M7.29044 1.86444L14.472 3.00467C15.166 3.11486 15.6392 3.7669 15.5292 4.46093L14.1609 13.0786C14.0507 13.7727 13.3986 14.2469 12.7045 14.1367L5.52297 12.9965C4.82899 12.8862 4.35575 12.2333 4.46594 11.5393L5.83419 2.92163C5.9445 2.22773 6.5965 1.75437 7.29044 1.86444Z" stroke="black" stroke-opacity="0.1" stroke-width="0.363576"/>
<g clip-path="url(#clip1_3325_40371)">
<path d="M11.6917 11.7957C11.3649 11.7438 11.1483 11.465 11.2006 11.1355C11.2534 10.8034 11.5448 10.6107 11.9011 10.6673L12.5547 10.7711L12.5526 10.7845L12.392 11.0006L12.3384 10.9921C12.4082 11.0884 12.439 11.2058 12.419 11.3317C12.3952 11.4817 12.307 11.605 12.1968 11.659L12.1955 11.667C12.3166 11.7521 12.3741 11.926 12.3452 12.1082C12.2937 12.4323 11.9897 12.6175 11.5986 12.5554C11.3066 12.509 11.0775 12.3436 10.9821 12.1142L11.2483 11.9423C11.3209 12.1076 11.4721 12.2277 11.6543 12.2566C11.8391 12.286 11.9834 12.2073 12.0064 12.0626C12.0268 11.9341 11.9467 11.8334 11.8154 11.8126C11.7752 11.8062 11.7587 11.8064 11.6917 11.7957ZM11.5301 11.1879C11.5054 11.3432 11.6019 11.4794 11.7653 11.5053C11.9287 11.5313 12.068 11.4325 12.0926 11.2772C12.116 11.1298 12.0151 10.9875 11.8517 10.9615C11.6909 10.936 11.5539 11.0378 11.5301 11.1879Z" fill="#4D4D4D" fill-opacity="0.4"/>
<rect x="12.8811" y="10.5312" width="0.305137" height="2.25039" rx="0.152568" transform="rotate(9.02172 12.8811 10.5312)" fill="#4D4D4D" fill-opacity="0.4"/>
</g>
<path d="M7.03478 3.48017C7.06627 3.28186 7.25256 3.14662 7.45087 3.17811L13.9143 4.20432C14.1126 4.23581 14.2478 4.4221 14.2164 4.62041C14.1849 4.81873 13.9986 4.95397 13.8003 4.92248L7.33685 3.89626C7.13854 3.86478 7.0033 3.67849 7.03478 3.48017Z" fill="#4D4D4D" fill-opacity="0.2"/>
<path d="M6.85107 4.63642C6.88256 4.43811 7.06884 4.30287 7.26716 4.33436L13.7306 5.36057C13.9289 5.39206 14.0641 5.57835 14.0326 5.77666C14.0012 5.97498 13.8149 6.11022 13.6166 6.07873L7.15313 5.05251C6.95482 5.02103 6.81958 4.83474 6.85107 4.63642Z" fill="#4D4D4D" fill-opacity="0.2"/>
<path d="M6.66748 5.79463C6.69896 5.59631 6.88525 5.46107 7.08356 5.49256L11.3925 6.1767C11.5908 6.20819 11.7261 6.39448 11.6946 6.59279C11.6631 6.79111 11.4768 6.92635 11.2785 6.89486L6.96954 6.21072C6.77123 6.17923 6.63599 5.99294 6.66748 5.79463Z" fill="#4D4D4D" fill-opacity="0.2"/>
<path d="M6.48376 6.95088C6.51525 6.75256 6.70154 6.61732 6.89985 6.64881L9.05432 6.99088C9.25264 7.02237 9.38788 7.20866 9.35639 7.40697C9.3249 7.60529 9.13861 7.74053 8.9403 7.70904L6.78582 7.36697C6.58751 7.33548 6.45227 7.14919 6.48376 6.95088Z" fill="#4D4D4D" fill-opacity="0.2"/>
<path d="M2.9725 2.20418C2.98445 1.40108 3.64518 0.75973 4.44828 0.771675L11.719 0.879823C12.5221 0.891769 13.1635 1.5525 13.1515 2.3556L13.0217 11.0805C13.0098 11.8836 12.349 12.5249 11.5459 12.513L4.2752 12.4048C3.47209 12.3928 2.83074 11.7321 2.84269 10.929L2.9725 2.20418Z" fill="url(#paint1_linear_3325_40371)"/>
<path d="M2.9725 2.20418C2.98445 1.40108 3.64518 0.75973 4.44828 0.771675L11.719 0.879823C12.5221 0.891769 13.1635 1.5525 13.1515 2.3556L13.0217 11.0805C13.0098 11.8836 12.349 12.5249 11.5459 12.513L4.2752 12.4048C3.47209 12.3928 2.83074 11.7321 2.84269 10.929L2.9725 2.20418Z" fill="white" fill-opacity="0.6"/>
<path d="M4.44538 0.953254L11.7161 1.06143C12.4187 1.07188 12.9798 1.65006 12.9694 2.35268L12.8396 11.0773C12.8292 11.78 12.2511 12.3421 11.5484 12.3317L4.27769 12.2235C3.57507 12.2129 3.01386 11.6339 3.02432 10.9313L3.15413 2.20664C3.16471 1.50411 3.74284 0.942911 4.44538 0.953254Z" stroke="black" stroke-opacity="0.1" stroke-width="0.363576"/>
<g clip-path="url(#clip2_3325_40371)">
<path d="M10.214 10.1569C9.88314 10.1519 9.6291 9.90673 9.63406 9.57316C9.63907 9.23687 9.90021 9.00476 10.2609 9.01013L10.9226 9.01997L10.9224 9.03353L10.7941 9.27033L10.7399 9.26952C10.8227 9.35485 10.8699 9.46676 10.868 9.59423C10.8657 9.7461 10.7959 9.88069 10.6945 9.94971L10.6944 9.95784C10.8263 10.0249 10.9079 10.1889 10.9052 10.3733C10.9003 10.7014 10.6257 10.9279 10.2297 10.922C9.93414 10.9176 9.68382 10.7864 9.5568 10.5729L9.79589 10.3649C9.89126 10.5182 10.058 10.6157 10.2424 10.6184C10.4295 10.6212 10.5612 10.5228 10.5634 10.3763C10.5653 10.2462 10.4717 10.158 10.3388 10.156C10.2981 10.1554 10.2818 10.1579 10.214 10.1569ZM9.96763 9.57812C9.96529 9.73541 10.0801 9.85648 10.2456 9.85894C10.411 9.8614 10.5348 9.74389 10.5372 9.58659C10.5394 9.43743 10.4192 9.31087 10.2538 9.30841C10.091 9.30598 9.96989 9.42625 9.96763 9.57812Z" fill="#4D4D4D" fill-opacity="0.4"/>
<rect x="11.2111" y="8.73633" width="0.305137" height="2.25039" rx="0.152568" transform="rotate(0.852436 11.2111 8.73633)" fill="#4D4D4D" fill-opacity="0.4"/>
</g>
<path d="M4.4222 2.58815C4.42519 2.38737 4.59037 2.22703 4.79115 2.23002L11.3348 2.32738C11.5356 2.33037 11.6959 2.49555 11.6929 2.69633C11.6899 2.8971 11.5248 3.05744 11.324 3.05445L4.78033 2.95709C4.57955 2.9541 4.41922 2.78892 4.4222 2.58815Z" fill="#4D4D4D" fill-opacity="0.2"/>
<path d="M4.40475 3.76002C4.40773 3.55925 4.57292 3.39891 4.77369 3.4019L11.3173 3.49926C11.5181 3.50224 11.6785 3.66743 11.6755 3.8682C11.6725 4.06898 11.5073 4.22932 11.3065 4.22633L4.76287 4.12897C4.5621 4.12598 4.40176 3.9608 4.40475 3.76002Z" fill="#4D4D4D" fill-opacity="0.2"/>
<path d="M4.38741 4.92994C4.3904 4.72917 4.55558 4.56883 4.75636 4.57182L9.11879 4.63672C9.31957 4.63971 9.47991 4.80489 9.47692 5.00567C9.47393 5.20644 9.30875 5.36678 9.10798 5.3638L4.74554 5.29889C4.54476 5.2959 4.38443 5.13072 4.38741 4.92994Z" fill="#4D4D4D" fill-opacity="0.2"/>
<path d="M4.36996 6.10182C4.37294 5.90104 4.53813 5.74071 4.7389 5.74369L6.92012 5.77614C7.1209 5.77913 7.28123 5.94431 7.27825 6.14509C7.27526 6.34587 7.11008 6.5062 6.9093 6.50322L4.72808 6.47076C4.52731 6.46778 4.36697 6.30259 4.36996 6.10182Z" fill="#4D4D4D" fill-opacity="0.2"/>
<path d="M0.35145 5.16174C0.295422 4.36051 0.899528 3.66556 1.70076 3.60953L8.95457 3.10226C9.75581 3.04623 10.4508 3.65034 10.5068 4.45158L11.1155 13.1562C11.1715 13.9574 10.5674 14.6523 9.76616 14.7084L2.51234 15.2156C1.71111 15.2716 1.01616 14.6675 0.960131 13.8663L0.35145 5.16174Z" fill="url(#paint2_linear_3325_40371)"/>
<path d="M0.35145 5.16174C0.295422 4.36051 0.899528 3.66556 1.70076 3.60953L8.95457 3.10226C9.75581 3.04623 10.4508 3.65034 10.5068 4.45158L11.1155 13.1562C11.1715 13.9574 10.5674 14.6523 9.76616 14.7084L2.51234 15.2156C1.71111 15.2716 1.01616 14.6675 0.960131 13.8663L0.35145 5.16174Z" fill="white" fill-opacity="0.5"/>
<path d="M1.71323 3.7907L8.967 3.28347C9.66801 3.23445 10.276 3.76309 10.3251 4.46407L10.9338 13.1684C10.9828 13.8695 10.4543 14.4785 9.75326 14.5275L2.49949 15.0347C1.79849 15.0836 1.19032 14.5542 1.1413 13.8532L0.532631 5.14883C0.483751 4.44792 1.01233 3.83982 1.71323 3.7907Z" stroke="black" stroke-opacity="0.1" stroke-width="0.363576"/>
<g clip-path="url(#clip3_3325_40371)">
<path d="M8.23904 12.4741C7.90894 12.4972 7.63507 12.2743 7.61179 11.9415C7.58833 11.606 7.82891 11.3527 8.18877 11.3275L8.84895 11.2813L8.8499 11.2949L8.74209 11.5417L8.68797 11.5455C8.77771 11.6235 8.83417 11.731 8.84306 11.8582C8.85366 12.0097 8.79548 12.1497 8.70029 12.227L8.70085 12.2352C8.83797 12.2908 8.9332 12.4473 8.94607 12.6313C8.96896 12.9587 8.71447 13.2076 8.31945 13.2352C8.02453 13.2558 7.76401 13.1462 7.61938 12.9443L7.84001 12.7168C7.94801 12.8615 8.12239 12.9445 8.30637 12.9316C8.49306 12.9185 8.61594 12.8093 8.60572 12.6632C8.59664 12.5334 8.49589 12.4534 8.36331 12.4627C8.32272 12.4655 8.30668 12.4694 8.23904 12.4741ZM7.94459 11.9183C7.95557 12.0752 8.08023 12.1861 8.24528 12.1746C8.41033 12.163 8.52376 12.0355 8.51278 11.8785C8.50238 11.7297 8.37192 11.6138 8.20687 11.6253C8.04453 11.6367 7.934 11.7668 7.94459 11.9183Z" fill="#4D4D4D" fill-opacity="0.4"/>
<rect x="9.11304" y="10.9746" width="0.305137" height="2.25039" rx="0.152568" transform="rotate(-4 9.11304 10.9746)" fill="#4D4D4D" fill-opacity="0.4"/>
</g>
<path d="M1.8281 5.42324C1.81409 5.22293 1.96512 5.04919 2.16542 5.03519L8.69386 4.57867C8.89417 4.56467 9.06791 4.71569 9.08191 4.916C9.09592 5.11631 8.94489 5.29005 8.74458 5.30405L2.21615 5.76057C2.01584 5.77457 1.8421 5.62355 1.8281 5.42324Z" fill="#4D4D4D" fill-opacity="0.2"/>
<path d="M1.90976 6.59121C1.89575 6.3909 2.04678 6.21716 2.24709 6.20316L8.77553 5.74664C8.97583 5.73263 9.14957 5.88366 9.16358 6.08397C9.17758 6.28428 9.02656 6.45802 8.82625 6.47202L2.29781 6.92854C2.0975 6.94254 1.92377 6.79152 1.90976 6.59121Z" fill="#4D4D4D" fill-opacity="0.2"/>
<path d="M1.99155 7.75918C1.97754 7.55887 2.12857 7.38513 2.32888 7.37113L6.68117 7.06678C6.88148 7.05277 7.05521 7.2038 7.06922 7.40411C7.08323 7.60442 6.9322 7.77816 6.73189 7.79216L2.3796 8.0965C2.17929 8.11051 2.00556 7.95948 1.99155 7.75918Z" fill="#4D4D4D" fill-opacity="0.2"/>
<path d="M2.07321 8.9291C2.05921 8.72879 2.21023 8.55505 2.41054 8.54105L4.58669 8.38887C4.787 8.37487 4.96073 8.52589 4.97474 8.7262C4.98875 8.92651 4.83772 9.10025 4.63741 9.11426L2.46126 9.26643C2.26096 9.28043 2.08722 9.12941 2.07321 8.9291Z" fill="#4D4D4D" fill-opacity="0.2"/>
</g>
<defs>
<linearGradient id="paint0_linear_3325_40371" x1="7.44645" y1="1.7053" x2="11.2134" y2="14.6833" gradientUnits="userSpaceOnUse">
<stop stop-color="#6C8269"/>
<stop offset="1" stop-color="#E3F2E2"/>
</linearGradient>
<linearGradient id="paint1_linear_3325_40371" x1="4.57719" y1="0.773554" x2="10.15" y2="13.0846" gradientUnits="userSpaceOnUse">
<stop stop-color="#CEBE2E"/>
<stop offset="1" stop-color="#F2EFE2"/>
</linearGradient>
<linearGradient id="paint2_linear_3325_40371" x1="1.82937" y1="3.6005" x2="8.42364" y2="15.396" gradientUnits="userSpaceOnUse">
<stop stop-color="#425D8C"/>
<stop offset="1" stop-color="#E2E8F2"/>
</linearGradient>
<clipPath id="clip0_3325_40371">
<rect width="16" height="16" rx="2" fill="white"/>
</clipPath>
<clipPath id="clip1_3325_40371">
<rect x="10.4885" y="9.55078" width="3.70062" height="3.5526" rx="0.771547" transform="rotate(9.02172 10.4885 9.55078)" fill="white"/>
</clipPath>
<clipPath id="clip2_3325_40371">
<rect x="8.70325" y="8.10742" width="3.70062" height="3.5526" rx="0.771547" transform="rotate(0.852436 8.70325 8.10742)" fill="white"/>
</clipPath>
<clipPath id="clip3_3325_40371">
<rect x="6.56055" y="10.5586" width="3.70062" height="3.5526" rx="0.771547" transform="rotate(-4 6.56055 10.5586)" fill="white"/>
</clipPath>
</defs>
</svg>
